<?xml version="1.0" encoding="UTF-8" standalone="no"?>
<svg width="1577px" height="411px" viewBox="0 0 1577 411" version="1.1" xmlns="http://www.w3.org/2000/svg" xmlns:xlink="http://www.w3.org/1999/xlink" xmlns:sketch="http://www.bohemiancoding.com/sketch/ns">
    <!-- Generator: Sketch 3.3.3 (12072) - http://www.bohemiancoding.com/sketch -->
    <title>Group + Group 3</title>
    <desc>Created with Sketch.</desc>
    <defs>
        <path d="M243.055,410.546544 C280.079286,410.546544 310.193378,371.473733 327.742625,314.65 C345.291873,257.835714 325.901795,211.942166 303.915676,173.209447 C252.683958,82.990553 265.437606,0.565437788 265.437606,0.565437788 C265.437606,0.565437788 248.662452,9.47396313 243.055,9.47396313 C237.834595,9.47396313 222.163938,0.565437788 222.163938,0.565437788 C222.163938,0.565437788 234.067973,82.990553 186.22527,173.209447 C165.674054,211.942166 147.577278,257.835714 163.965386,314.65 C180.344054,371.473733 208.475714,410.546544 243.055,410.546544 Z M145.642046,238.223733 C153.392413,186.576959 189.963571,143.706452 203.96332,103.887327 C218.161313,63.5391705 214.753417,32.4963134 214.753417,32.4963134 L202.962664,23.4460829 C202.962664,23.4460829 191.360714,119.975576 121.730135,172.63318 C83.6485521,201.437097 68.5820656,240.028111 68.1006178,277.391014 C66.6562741,389.526959 193.097703,437.593318 166.778552,359.929493 C155.186042,325.854147 136.277413,300.649539 145.642046,238.223733 Z M74.1139961,170.035253 C118.737606,148.902304 152.759923,123.782719 152.759923,123.782719 C152.759923,123.782719 134.389382,149.969816 128.13056,154.778341 C101.556525,175.202765 79.5987259,189.807834 65.5140154,221.568664 C55.7906564,243.514055 52.5621236,268.312442 56.8573938,291.863825 C64.6172008,334.280876 77.2103668,337.275576 68.9974324,353.41106 C42.2629151,405.879724 -34.4194595,276.446313 19.6820656,210.931336 C37.9959653,188.768664 54.9032819,179.132719 74.1139961,170.035253 Z M344.999228,238.441014 C337.258301,186.79424 300.677703,143.93318 286.677954,104.114055 C272.479961,63.7564516 275.887857,32.7041475 275.887857,32.7041475 L287.68805,23.6822581 C287.68805,23.6822581 299.28056,120.202304 368.911139,172.869355 C407.002162,201.673272 422.068649,240.292627 422.550097,277.617742 C424.00388,389.772581 297.553012,437.848387 323.891042,360.175115 C335.455232,326.052535 354.354421,300.857373 344.999228,238.441014 Z M416.527278,170.252535 C371.903668,149.119585 337.881351,123.990553 337.881351,123.990553 C337.881351,123.990553 356.251892,150.187097 362.510714,154.995622 C389.094189,175.420046 411.061429,190.025115 425.117819,221.795392 C434.850618,243.75023 438.079151,268.539171 433.77444,292.081106 C426.033514,334.507604 413.440347,337.521198 421.643842,353.618894 C448.368919,406.125346 525.060734,276.663594 470.940328,211.167512 C452.645309,188.995392 435.737992,179.35 416.527278,170.252535 Z" id="path-1"></path>
        <path d="M619.133416,165.218499 L707.469872,165.218499 L707.469872,339.043353 L733.242453,339.043353 L727.709752,365.352863 L659.111265,365.352863 L659.111265,189.765481 L619.133416,189.765481 L619.133416,165.218499 L619.133416,165.218499 Z M707.469872,66.166812 L707.306459,131.543726 L659.111265,131.543726 L659.111265,66.166812 L707.469872,66.166812 L707.469872,66.166812 Z M728.410094,165.195154 L792.444687,165.195154 L792.444687,65.5248319 L840.663225,65.5248319 L840.663225,165.195154 L902.083208,165.195154 L896.562179,189.730464 L840.663225,189.730464 L840.663225,365.668017 L792.444687,365.668017 L792.444687,189.730464 L728.410094,189.730464 L728.410094,165.195154 Z M936.073134,90.6904501 L989.520892,90.6904501 L989.520892,65.8516581 L1038.14796,65.8516581 L1038.14796,90.6904501 L1140.1761,90.6904501 L1140.1761,65.8516581 L1189.18836,65.8516581 L1189.18836,90.6904501 L1235.55099,90.6904501 L1230.02997,115.225761 L1189.18836,115.225761 L1189.18836,139.761071 L1140.1761,139.761071 L1140.1761,115.225761 L1038.14796,115.225761 L1037.79779,139.761071 L989.182393,139.761071 L989.520892,115.225761 L936.073134,115.225761 L936.073134,90.6904501 Z M941.58249,213.705501 L1081.07892,213.705501 L1075.55789,237.843952 L1038.14796,237.843952 L1038.14796,334.958026 C1038.14796,351.41606 1023.42911,365.026037 1006.98275,365.026037 L974.35849,365.026037 L974.35849,342.545063 L975.327296,342.545063 C979.751123,342.545063 989.614271,340.642467 989.614271,336.533795 L989.614271,237.832279 L941.58249,237.832279 L941.58249,213.705501 L941.58249,213.705501 Z M949.97492,163.502661 L1067.15379,163.502661 L1061.63276,188.785003 L949.97492,188.785003 L949.97492,163.502661 L949.97492,163.502661 Z M1096.08958,213.705501 L1235.56267,213.705501 L1230.04164,237.843952 L1189.20003,238.135761 L1189.20003,335.22649 C1189.20003,351.707869 1178.25136,365.026037 1161.48984,365.026037 L1128.87725,365.026037 L1128.87725,342.545063 L1130.1262,342.545063 C1134.55002,342.545063 1140.8531,340.642467 1140.8531,336.533795 L1140.8531,237.832279 L1096.07791,237.832279 L1096.07791,213.705501 L1096.08958,213.705501 Z M1104.79717,163.502661 L1221.64921,163.502661 L1216.13985,188.785003 L1104.79717,188.785003 L1104.79717,163.502661 Z M1308.71338,364.734228 L1308.71338,283.751362 L1551.73201,283.751362 L1551.73201,334.642872 C1551.73201,351.100906 1538.43719,364.722556 1521.65232,364.722556 L1308.71338,364.722556 L1308.71338,364.734228 Z M1527.90871,115.225761 L1333.12029,115.225761 L1333.12029,139.737726 L1284.73834,139.761071 L1284.73834,90.7021225 L1403.28287,90.7021225 L1403.28287,65.8633305 L1451.61814,65.8633305 L1451.61814,90.7021225 L1576.25565,90.7021225 L1576.09223,139.761071 L1527.89704,139.761071 L1527.89704,115.225761 L1527.90871,115.225761 Z M1358.79949,137.251513 L1407.41489,137.251513 L1394.9955,149.507496 L1552.08218,149.624219 L1552.08218,174.848199 L1466.75719,216.191715 L1521.60564,239.991667 L1576.25565,239.653168 L1565.21359,269.651145 L1505.03088,269.662818 L1432.98904,237.050231 L1365.07923,270.094695 L1284.75001,270.094695 L1284.75001,242.407846 L1356.92024,242.407846 L1397.0615,221.712744 L1345.20119,198.613134 L1332.95688,210.378877 L1284.75001,210.670687 L1358.79949,137.251513 L1358.79949,137.251513 Z M1357.21205,340.65414 L1491.93448,340.65414 C1498.57606,340.65414 1503.95702,335.261507 1503.95702,328.631604 L1503.95702,307.819778 L1357.21205,307.819778 L1357.21205,340.65414 L1357.21205,340.65414 Z M1372.47679,174.05226 L1370.74032,173.27243 L1373.27106,173.27243 L1407.41489,139.749399 L1373.27106,173.27243 L1484.2424,173.27243 L1427.14119,198.601462 L1372.47679,174.05226 L1332.94521,212.865091 L1372.47679,174.05226 Z M944.068704,262.285883 L967.985379,262.285883 L967.985379,333.872496 L944.092048,339.090043 L944.068704,262.285883 Z M1055.79658,261.854006 L1079.67824,261.854006 L1079.67824,338.669838 L1055.79658,333.872496 L1055.79658,261.854006 Z M1099.49791,261.854006 L1123.39124,261.854006 L1123.39124,333.872496 L1099.39286,338.669838 L1099.49791,261.854006 Z M1204.37411,261.842333 L1228.26744,261.842333 L1228.26744,338.669838 L1204.37411,333.872496 L1204.37411,261.842333 Z" id="path-2"></path>
    </defs>
    <g id="Page-1" stroke="none" stroke-width="1" fill="none" fill-rule="evenodd" sketch:type="MSPage">
        <g id="Artboard-1" sketch:type="MSArtboardGroup" transform="translate(-171.000000, -334.000000)">
            <g id="Group-+-Group-3" sketch:type="MSLayerGroup" transform="translate(171.000000, 334.000000)">
                <g id="Shape">
                    <use fill="#24AD5E" fill-rule="evenodd" sketch:type="MSShapeGroup" xlink:href="#path-1"></use>
                    <use fill="none" xlink:href="#path-1"></use>
                </g>
                <g id="Shape">
                    <use fill="#24AD5E" fill-rule="evenodd" sketch:type="MSShapeGroup" xlink:href="#path-2"></use>
                    <use fill="none" xlink:href="#path-2"></use>
                </g>
            </g>
        </g>
    </g>
</svg>